<svg width="25" height="25" viewBox="0 0 25 25" fill="none" xmlns="http://www.w3.org/2000/svg">
<g clip-path="url(#clip0_1_5)">
<path d="M12.4999 0.000183105C5.596 0.000671387 0.000488281 5.59598 0 12.5001C0.000488281 19.4047 5.59814 24.9673 12.4964 25H12.5127L12.5272 24.9995C13.8516 25.0014 14.9445 24.5832 15.6991 23.8963C16.4544 23.2122 16.8577 22.2726 16.8567 21.3213C16.8577 20.8746 16.7633 20.4275 16.5872 20.0018C16.8843 19.8327 17.0824 19.6789 17.139 19.6383C17.3417 19.4939 17.9202 18.722 17.5146 18.0861C17.1072 17.4506 15.6571 16.0022 15.2611 15.7569C14.8663 15.512 14.2065 15.7508 13.8888 16.2171C13.5701 16.6834 13.3188 16.5437 13.3188 16.5437C13.3188 16.5437 12.4146 15.8134 11.1643 13.2908C9.91392 10.7666 9.88188 9.60648 9.88188 9.60648C9.88188 9.60648 9.92256 9.32098 10.4868 9.3495C11.0498 9.37982 11.639 8.9995 11.6838 8.53602C11.7292 8.07391 11.4544 6.04135 11.1956 5.333C10.936 4.62421 9.97183 4.61766 9.73423 4.69149C9.49546 4.76483 7.04707 5.36102 6.85269 7.9244C6.65903 10.4882 7.31973 12.816 8.26592 14.7266C9.21255 16.6367 10.6647 18.5725 12.8216 19.971C13.6951 20.5373 14.5334 20.6107 15.2382 20.492C15.3595 20.7625 15.4198 21.0433 15.4211 21.3214C15.4198 21.8727 15.1955 22.4129 14.7343 22.8334C14.272 23.2516 13.559 23.5623 12.5273 23.5642L12.5021 23.5646C6.38657 23.5333 1.43491 18.608 1.4354 12.5001C1.43589 9.44242 2.67266 6.68046 4.67598 4.67601C6.68052 2.67294 9.44219 1.43607 12.4999 1.43558C15.5576 1.43607 18.3193 2.67289 20.3237 4.67601C22.3273 6.68051 23.5637 9.44193 23.5646 12.5001C23.5641 14.3883 23.0926 16.1605 22.261 17.7141C21.7956 18.5851 21.2162 19.3855 20.5434 20.0975C20.2714 20.3859 20.2845 20.84 20.5724 21.112C20.8602 21.3844 21.3148 21.3718 21.5872 21.0835C22.346 20.2798 23.0001 19.3757 23.5263 18.3911C24.4664 16.6367 25 14.6285 25 12.5001C24.999 5.59598 19.4038 0.000671387 12.4999 0.000183105Z" fill="#005FB3"/>
</g>
<defs>
<clipPath id="clip0_1_5">
<rect width="25" height="25" fill="white"/>
</clipPath>
</defs>
</svg>
